<svg width="684" height="612" viewBox="0 0 684 612" fill="none" xmlns="http://www.w3.org/2000/svg">
  <rect x="76" y="64" width="532" height="484" rx="76" stroke="#2478B8" stroke-width="28"/>

  <path d="M86 486L250 338L320 398L518 202" stroke="#2478B8" stroke-width="36" stroke-linecap="round" stroke-linejoin="round"/>
  <path d="M518 202L560 202L560 244" stroke="#2478B8" stroke-width="36" stroke-linecap="round" stroke-linejoin="round"/>

  <path d="M132 212L172 252L236 188" stroke="#59B863" stroke-width="24" stroke-linecap="round" stroke-linejoin="round"/>
  <path d="M132 302L172 342L236 278" stroke="#59B863" stroke-width="24" stroke-linecap="round" stroke-linejoin="round"/>

  <rect x="260" y="148" width="212" height="24" rx="12" fill="#59B863"/>
  <rect x="260" y="208" width="150" height="24" rx="12" fill="#59B863"/>
  <rect x="260" y="268" width="86" height="24" rx="12" fill="#59B863"/>

  <rect x="250" y="436" width="64" height="90" rx="12" fill="#2478B8"/>
  <rect x="336" y="372" width="64" height="154" rx="12" fill="#2478B8"/>
  <rect x="422" y="308" width="64" height="218" rx="12" fill="#2478B8"/>

  <text x="512" y="500" font-family="Inter, Arial, sans-serif" font-size="148" font-weight="800" text-anchor="middle" fill="#59B863" stroke="#FFFFFF" stroke-width="10">$</text>
</svg>
